<svg
  width="512"
  height="512"
  viewBox="52 52 408 408"
  version="1.1"
  xmlns="http://www.w3.org/2000/svg"
  xmlns:xlink="http://www.w3.org/1999/xlink"
>
  <g>
    <rect style="fill:#eee4cc;fill-opacity:1;stroke-width:4.6" width="512" height="512" x="0" y="0"/>
    <path
      fill="#1e3163"
      d="m 294.8,77.0 c -3.8,-0.1 -7.5,1.4 -11.0,5.0 l -63.8,68.7 h -35.2 v 55.1 h 38.0 v -21.0 h 64.5 V 357.4 H 266.4 V 226.3 h -75.7 v 78.5 h -42.1 v 130.0 h 214.9 c 0.0,-48.5 0,-97.0 0,-145.5 h -35.7 v -141.1 h 33.7 v -27.0 h -4.3 L 304.3,80.4 c -3.2,-2.0 -6.4,-3.2 -9.4,-3.4 z m 0.7,13.1 23.5,33.6 h -22.6 z m -7.6,0.1 v 60.2 h -55.5 z m 19.2,3.8 33.8,26.3 h -14.1 z m 21.5,33.5 h 21.5 v 13.8 l -21.5,-0.1 z m -15.7,6.1 -15.3,19.7 -0.2,-19.5 z m 7.3,4.5 v 14.6 h -11.7 z m -22.7,20.4 h 21.9 l -21.9,21.0 z m -82.5,1.5 h 72.2 l -0.2,14.1 h -71.9 z m -20.6,0.4 h 12.7 l -0.3,13.5 h -12.3 z m 125.9,5.3 v 13.6 h -14.0 z m -125.8,19.3 19.4,0.1 v 11.8 h -19.4 z m 102.7,0.7 h 21.8 l -21.8,22.8 z m 22.5,8.0 v 14.8 h -14.0 z m -20.7,21.7 h 20.1 l -20.1,21.8 z m 20.8,7.6 v 14.2 h -12.9 z m -84.9,18.0 h 15.0 v 10.5 h -15.0 z m -28.3,0.8 h 19.3 v 8.6 h -19.3 z m 91.9,3.9 h 21.8 l -21.8,22.2 z m 22.6,7.7 v 14.4 h -14.0 z m -110.2,12.6 h 15.0 v 11.1 h -15.0 z m 24.5,1.0 h 15.0 v 11.0 h -15.0 z m 63.4,8.8 h 20.6 l -20.6,21.4 z m 21.2,7.5 v 13.9 h -13.2 z m -84.0,8.8 h 14.8 v 13.9 h -14.8 z m -23.8,0.8 h 13.6 V 307.1 H 212.1 Z M 331.0,305.0 h 14.9 v 11.4 H 331.0 Z m -94.8,15.0 h 12.6 v 11.1 h -12.6 z m -25.1,1.3 h 15.0 v 10.3 h -15.0 z m -43.4,0.6 h 12.9 v 11.5 h -12.9 z m 138.9,2.3 h 14.8 v 13.9 h -14.8 z m 24.7,3.6 h 14.9 v 11.7 h -14.9 z m -163.2,18.8 h 14.8 v 13.9 h -14.8 z m 42.8,0.9 h 14.8 v 13.9 h -14.8 z m 121.5,5.9 h 12.5 v 12.6 H 332.4 Z m -64.8,19.5 h 17.7 v 8.9 H 267.6 Z m -100.1,0.0 h 14.8 v 13.9 h -14.8 z m 43.9,0.8 h 15.0 v 11.1 h -15.0 z m 91.3,1.1 h 12.8 v 13.6 h -12.8 z m 33.3,6.7 h 7.0 v 14.3 h -7.0 z M 211.9,397.0 h 14.8 v 13.9 h -14.8 z m -43.8,2.1 h 14.8 v 13.9 h -14.8 z m 101.1,0.1 h 13.5 v 12.5 h -13.5 z"
    />
  </g>
</svg>
